# xmcd CD database file
#
# Track frame offsets:
#	150
#	14881
#	34169
#	50578
#	68299
#	85093
#	100547
#	120931
#	138668
#	159337
#	179898
#	194166
#	214330
#	234017
#
# Disc length: 3425 seconds
#
# Revision: 0
# Processed by: cddbd v1.5.1PL0 Copyright (c) Steve Scherf et al.
# Submitted via: CDex 1.51
#
DISCID=bf0d5f0e
DTITLE=Peninha A a Z - Popularidade-Peninha
DYEAR=1990
DGENRE=MPB
TTITLE0=Sao tantas coisas-Peninha
TTITLE1=Sonhos-Peninha
TTITLE2=Ta combinado-Peninha
TTITLE3=Amo voce-Peninha
TTITLE4=Eterno chorar-Peninha
TTITLE5=Tudo pode acontecer-Peninha
TTITLE6=O amor nao tem explicacao-Peninha
TTITLE7=Precisamos conversar-Peninha
TTITLE8=Por nos dois-Peninha
TTITLE9=Boa noite meu amor-Peninha
TTITLE10=Quando amanhecer-Peninha
TTITLE11=Seu jeito de amar-Peninha
TTITLE12=Planeta seducao-Peninha
TTITLE13=Emocao-Peninha
EXTD=YEAR: 1990
EXTT0=
EXTT1=
EXTT2=
EXTT3=
EXTT4=
EXTT5=
EXTT6=
EXTT7=
EXTT8=
EXTT9=
EXTT10=
EXTT11=
EXTT12=
EXTT13=
PLAYORDER=
